<svg id="Layer_1" data-name="Layer 1" xmlns="http://www.w3.org/2000/svg" viewBox="0 0 949.28 190.26"><defs><style>.cls-1{fill:#0532a9;}</style></defs><path class="cls-1" d="M109.19,505.78c1.73,5,3.06,9.1,4.53,13.12,2.5,6.85,5,8.62,12.42,8.63,29.56,0,59.13.13,88.7-.08,4.89,0,6.82,1.23,6.25,6.3a63,63,0,0,0,0,11.81c.31,3.94-1.39,4.83-5,4.82-30.82-.1-61.65.21-92.46-.17-15.13-.19-25.1-8.79-30.36-22.5-7.48-19.54-14.42-39.3-21.6-59-4.53-12.43-9.22-24.82-13.51-37.34-1.24-3.62-3.13-4.57-6.68-4.43-6.6.26-13.23.07-20.28.07V404.92h5.84l206.44-.05c8.06,0,13.2,6,11,13.85-6.46,23.45-13,46.87-20.16,70.13-3.67,12-11.65,16.89-25,16.91q-46.77.08-93.54,0Zm-28.35-78.4a21.7,21.7,0,0,0,.52,2.39c6.08,16.82,12.08,33.67,18.44,50.39.56,1.49,3.42,3,5.22,3,34.4.18,68.8.09,103.2.21,3.64,0,4.95-1.52,5.81-4.76,3-11.23,6.25-22.38,9.4-33.57l5-17.66Z" transform="translate(-31.21 -404.87)"/><path class="cls-1" d="M109.2,578.41a16.53,16.53,0,0,1,16.43-16.88,16.78,16.78,0,0,1,17.05,16.35,17,17,0,0,1-16.78,17.25A16.74,16.74,0,0,1,109.2,578.41Z" transform="translate(-31.21 -404.87)"/><path class="cls-1" d="M209.85,578.45a16.89,16.89,0,0,1-16.8,16.67,17.14,17.14,0,0,1-16.81-16.76,16.89,16.89,0,0,1,17.17-16.84A16.63,16.63,0,0,1,209.85,578.45Z" transform="translate(-31.21 -404.87)"/><path class="cls-1" d="M371.6,551.89q-21.17,0-32.77-11.67T327.21,507.3V490.4q0-21.06,11.62-32.58T371.6,446.3a53.5,53.5,0,0,1,21.75,4.26,36.78,36.78,0,0,1,15.42,12.16l-14.53,13a29.39,29.39,0,0,0-22.35-10.28q-11.65,0-18.09,6.53t-6.42,18.39v16.9q0,12.16,6.42,18.78t18.09,6.63a27.45,27.45,0,0,0,12.26-2.87,29.89,29.89,0,0,0,10.09-8.1l14.53,14a37.13,37.13,0,0,1-15.47,11.92A54.26,54.26,0,0,1,371.6,551.89Z" transform="translate(-31.21 -404.87)"/><path class="cls-1" d="M484.08,551.89q-18.88,0-28.32-7.81t-9.44-23.93q0-15.31,8.65-22.88t25.95-7.57h29.16l1.39,16.22H481q-7.81,0-11.77,3.51t-3.95,10.72q0,7.82,5.24,11.57t15.72,3.76q11.46,0,17.2-2.48t5.74-7.71l2.07,14.44a23.41,23.41,0,0,1-6.62,6.82,29.3,29.3,0,0,1-9,4A45.45,45.45,0,0,1,484.08,551.89Zm25.12-1.49v-65q0-10.08-5.39-15.67t-15.28-5.58a39.87,39.87,0,0,0-11.91,1.83,34.73,34.73,0,0,0-10.53,5.29l-14.73-10.09a38.45,38.45,0,0,1,15.37-10.92,55.56,55.56,0,0,1,21.21-3.91q19.28,0,29.86,10t10.57,28.18V550.4Z" transform="translate(-31.21 -404.87)"/><path class="cls-1" d="M579.27,550.4V447.79h20.16V550.4Zm56.45-78.29a17,17,0,0,0-6.72-4.95,24.45,24.45,0,0,0-9.4-1.68q-9.58,0-14.88,5.29t-5.29,14.68l-2.07-19.77a37.4,37.4,0,0,1,12.21-14.24,29,29,0,0,1,16.66-5.14,37.64,37.64,0,0,1,12.7,2,28.57,28.57,0,0,1,9.94,6Z" transform="translate(-31.21 -404.87)"/><path class="cls-1" d="M678,466V447.79h46.27V466Zm34.6,84.92q-12.65,0-18.34-7t-5.68-20.17V417.93h20.17v106a9.68,9.68,0,0,0,1.48,5.73,5,5,0,0,0,4.35,2.08h9.69V550.9Z" transform="translate(-31.21 -404.87)"/><path class="cls-1" d="M814.22,551.89q-21.45,0-33.21-12t-11.77-34V494.35q0-22.94,11.32-35.49t31.88-12.56q19.38,0,30,14.24t10.63,39.94v6.72H783.87V491h50q-.9-12.47-6.48-19.48a18.16,18.16,0,0,0-15-7q-11.37,0-17.69,7.52t-6.33,21.25v13.05q0,12.75,6.77,19.58t19,6.82a32,32,0,0,0,12.16-2.47,35.2,35.2,0,0,0,10.78-6.92l13.25,13.24a55.86,55.86,0,0,1-17.11,11.32A48.67,48.67,0,0,1,814.22,551.89Z" transform="translate(-31.21 -404.87)"/><path class="cls-1" d="M888.15,550.4l38.76-56.64,9.69,18.58L910.5,550.4Zm70,0L927.5,503.74l-37.77-55.95h22.45l29.46,46,38.85,56.64Zm-15.62-47.25-8.51-19,22.45-36.38h22.44Z" transform="translate(-31.21 -404.87)"/></svg>